<mxfile host="app.diagrams.net" modified="2021-10-07T09:57:46.610Z" agent="5.0 (Windows)" etag="luCE46L2ccHErg-Z_-eY" version="15.4.3" type="github">
  <diagram id="j2fxM-sFjxdly1YEMKlo" name="Страница 1">
    <mxGraphModel dx="1038" dy="495" grid="1" gridSize="10" guides="1" tooltips="1" connect="1" arrows="1" fold="1" page="1" pageScale="1" pageWidth="1169" pageHeight="1654" math="0" shadow="0">
      <root>
        <mxCell id="0" />
        <mxCell id="1" parent="0" />
        <mxCell id="SkLQpkn3maGRPMSLVxLG-39" value="Клиент" style="shape=umlActor;verticalLabelPosition=bottom;verticalAlign=top;html=1;outlineConnect=0;" parent="1" vertex="1">
          <mxGeometry x="134" y="21" width="30" height="60" as="geometry" />
        </mxCell>
        <mxCell id="SkLQpkn3maGRPMSLVxLG-40" value="составление &lt;br&gt;обращения" style="html=1;dashed=0;whitespace=wrap;fillColor=#fff2cc;strokeColor=#d6b656;" parent="1" vertex="1">
          <mxGeometry x="164" y="151" width="100" height="50" as="geometry" />
        </mxCell>
        <mxCell id="SkLQpkn3maGRPMSLVxLG-41" value="шаблон&lt;br&gt;обращения" style="html=1;dashed=0;whitespace=wrap;fillColor=#f8cecc;strokeColor=#b85450;" parent="1" vertex="1">
          <mxGeometry x="24" y="151" width="100" height="50" as="geometry" />
        </mxCell>
        <mxCell id="1h8o2PvppzxLWvazJ7VE-4" style="edgeStyle=orthogonalEdgeStyle;rounded=0;orthogonalLoop=1;jettySize=auto;html=1;endArrow=classic;endFill=1;" edge="1" parent="1" source="SkLQpkn3maGRPMSLVxLG-42" target="SkLQpkn3maGRPMSLVxLG-43">
          <mxGeometry relative="1" as="geometry" />
        </mxCell>
        <mxCell id="SkLQpkn3maGRPMSLVxLG-42" value="заполнение &lt;br&gt;сведений" style="html=1;dashed=0;whitespace=wrap;fillColor=#fff2cc;strokeColor=#d6b656;" parent="1" vertex="1">
          <mxGeometry x="164" y="241" width="100" height="50" as="geometry" />
        </mxCell>
        <mxCell id="SkLQpkn3maGRPMSLVxLG-43" value="сведения &lt;br&gt;о животном" style="html=1;dashed=0;whitespace=wrap;" parent="1" vertex="1">
          <mxGeometry x="24" y="241" width="100" height="50" as="geometry" />
        </mxCell>
        <mxCell id="SkLQpkn3maGRPMSLVxLG-44" value="" style="endArrow=none;html=1;entryX=0.4;entryY=-0.02;entryDx=0;entryDy=0;entryPerimeter=0;fillColor=#fff2cc;strokeColor=#d6b656;endFill=0;" parent="1" source="SkLQpkn3maGRPMSLVxLG-39" target="SkLQpkn3maGRPMSLVxLG-40" edge="1">
          <mxGeometry width="50" height="50" relative="1" as="geometry">
            <mxPoint x="156" y="91" as="sourcePoint" />
            <mxPoint x="224" y="141" as="targetPoint" />
          </mxGeometry>
        </mxCell>
        <mxCell id="SkLQpkn3maGRPMSLVxLG-46" value="" style="endArrow=classic;html=1;" parent="1" source="SkLQpkn3maGRPMSLVxLG-41" target="SkLQpkn3maGRPMSLVxLG-40" edge="1">
          <mxGeometry width="50" height="50" relative="1" as="geometry">
            <mxPoint x="334" y="161" as="sourcePoint" />
            <mxPoint x="384" y="111" as="targetPoint" />
          </mxGeometry>
        </mxCell>
        <mxCell id="SkLQpkn3maGRPMSLVxLG-47" value="" style="endArrow=classic;html=1;" parent="1" source="SkLQpkn3maGRPMSLVxLG-40" target="SkLQpkn3maGRPMSLVxLG-42" edge="1">
          <mxGeometry width="50" height="50" relative="1" as="geometry">
            <mxPoint x="334" y="161" as="sourcePoint" />
            <mxPoint x="384" y="111" as="targetPoint" />
          </mxGeometry>
        </mxCell>
        <mxCell id="SkLQpkn3maGRPMSLVxLG-49" value="Оператор" style="shape=umlActor;verticalLabelPosition=bottom;verticalAlign=top;html=1;outlineConnect=0;" parent="1" vertex="1">
          <mxGeometry x="780" y="21" width="30" height="60" as="geometry" />
        </mxCell>
        <mxCell id="SkLQpkn3maGRPMSLVxLG-50" value="обращение" style="html=1;dashed=0;whitespace=wrap;" parent="1" vertex="1">
          <mxGeometry x="300" y="151" width="100" height="50" as="geometry" />
        </mxCell>
        <mxCell id="SkLQpkn3maGRPMSLVxLG-51" value="" style="endArrow=classic;html=1;" parent="1" source="SkLQpkn3maGRPMSLVxLG-40" target="SkLQpkn3maGRPMSLVxLG-50" edge="1">
          <mxGeometry width="50" height="50" relative="1" as="geometry">
            <mxPoint x="354" y="181" as="sourcePoint" />
            <mxPoint x="439" y="181" as="targetPoint" />
          </mxGeometry>
        </mxCell>
        <mxCell id="SkLQpkn3maGRPMSLVxLG-52" value="принятие&amp;nbsp;&lt;br&gt;обращения" style="html=1;dashed=0;whitespace=wrap;fillColor=#d5e8d4;strokeColor=#82b366;" parent="1" vertex="1">
          <mxGeometry x="745" y="151" width="100" height="50" as="geometry" />
        </mxCell>
        <mxCell id="SkLQpkn3maGRPMSLVxLG-53" value="обращение" style="html=1;dashed=0;whitespace=wrap;" parent="1" vertex="1">
          <mxGeometry x="610" y="151" width="100" height="50" as="geometry" />
        </mxCell>
        <mxCell id="zxGxXdGogj-dKgFZr41c-1" style="edgeStyle=orthogonalEdgeStyle;rounded=0;orthogonalLoop=1;jettySize=auto;html=1;endArrow=classic;endFill=1;" edge="1" parent="1" source="SkLQpkn3maGRPMSLVxLG-54">
          <mxGeometry relative="1" as="geometry">
            <mxPoint x="795" y="350" as="targetPoint" />
          </mxGeometry>
        </mxCell>
        <mxCell id="SkLQpkn3maGRPMSLVxLG-54" value="выбор &lt;br&gt;специалиста" style="html=1;dashed=0;whitespace=wrap;fillColor=#d5e8d4;strokeColor=#82b366;" parent="1" vertex="1">
          <mxGeometry x="745" y="241" width="100" height="50" as="geometry" />
        </mxCell>
        <mxCell id="SkLQpkn3maGRPMSLVxLG-55" value="список &lt;br&gt;специалистов" style="html=1;dashed=0;whitespace=wrap;fillColor=#f8cecc;strokeColor=#b85450;" parent="1" vertex="1">
          <mxGeometry x="610" y="241" width="100" height="50" as="geometry" />
        </mxCell>
        <mxCell id="SkLQpkn3maGRPMSLVxLG-56" value="" style="endArrow=none;html=1;fillColor=#d5e8d4;strokeColor=#82b366;endFill=0;" parent="1" source="SkLQpkn3maGRPMSLVxLG-49" target="SkLQpkn3maGRPMSLVxLG-52" edge="1">
          <mxGeometry width="50" height="50" relative="1" as="geometry">
            <mxPoint x="540" y="220" as="sourcePoint" />
            <mxPoint x="590" y="170" as="targetPoint" />
          </mxGeometry>
        </mxCell>
        <mxCell id="SkLQpkn3maGRPMSLVxLG-57" value="" style="endArrow=classic;html=1;" parent="1" source="SkLQpkn3maGRPMSLVxLG-52" target="SkLQpkn3maGRPMSLVxLG-54" edge="1">
          <mxGeometry width="50" height="50" relative="1" as="geometry">
            <mxPoint x="540" y="280" as="sourcePoint" />
            <mxPoint x="590" y="230" as="targetPoint" />
          </mxGeometry>
        </mxCell>
        <mxCell id="SkLQpkn3maGRPMSLVxLG-58" value="" style="endArrow=classic;html=1;" parent="1" source="SkLQpkn3maGRPMSLVxLG-55" target="SkLQpkn3maGRPMSLVxLG-54" edge="1">
          <mxGeometry width="50" height="50" relative="1" as="geometry">
            <mxPoint x="540" y="220" as="sourcePoint" />
            <mxPoint x="590" y="170" as="targetPoint" />
          </mxGeometry>
        </mxCell>
        <mxCell id="SkLQpkn3maGRPMSLVxLG-59" value="" style="endArrow=classic;html=1;" parent="1" source="SkLQpkn3maGRPMSLVxLG-53" target="SkLQpkn3maGRPMSLVxLG-52" edge="1">
          <mxGeometry width="50" height="50" relative="1" as="geometry">
            <mxPoint x="590" y="230" as="sourcePoint" />
            <mxPoint x="610" y="210" as="targetPoint" />
          </mxGeometry>
        </mxCell>
        <mxCell id="SkLQpkn3maGRPMSLVxLG-60" value="получение &lt;br&gt;заключения" style="html=1;dashed=0;whitespace=wrap;fillColor=#fff2cc;strokeColor=#d6b656;" parent="1" vertex="1">
          <mxGeometry x="250" y="40" width="100" height="50" as="geometry" />
        </mxCell>
        <mxCell id="SkLQpkn3maGRPMSLVxLG-61" value="заключение&lt;br&gt;специалиста" style="html=1;dashed=0;whitespace=wrap;fillColor=#ffffff;strokeColor=#000000;" parent="1" vertex="1">
          <mxGeometry x="380" y="40" width="100" height="50" as="geometry" />
        </mxCell>
        <mxCell id="SkLQpkn3maGRPMSLVxLG-62" value="" style="endArrow=none;html=1;fillColor=#fff2cc;strokeColor=#d6b656;endFill=0;" parent="1" source="SkLQpkn3maGRPMSLVxLG-39" target="SkLQpkn3maGRPMSLVxLG-60" edge="1">
          <mxGeometry width="50" height="50" relative="1" as="geometry">
            <mxPoint x="310" y="210" as="sourcePoint" />
            <mxPoint x="360" y="160" as="targetPoint" />
          </mxGeometry>
        </mxCell>
        <mxCell id="SkLQpkn3maGRPMSLVxLG-63" value="" style="endArrow=classic;html=1;" parent="1" source="SkLQpkn3maGRPMSLVxLG-61" target="SkLQpkn3maGRPMSLVxLG-60" edge="1">
          <mxGeometry width="50" height="50" relative="1" as="geometry">
            <mxPoint x="360" y="160" as="sourcePoint" />
            <mxPoint x="310" y="210" as="targetPoint" />
          </mxGeometry>
        </mxCell>
        <mxCell id="SkLQpkn3maGRPMSLVxLG-64" value="получение&lt;br&gt;&amp;nbsp;заключения&amp;nbsp;&lt;br&gt;от специалиста" style="html=1;dashed=0;whitespace=wrap;fillColor=#d5e8d4;strokeColor=#82b366;" parent="1" vertex="1">
          <mxGeometry x="890" y="151" width="100" height="50" as="geometry" />
        </mxCell>
        <mxCell id="SkLQpkn3maGRPMSLVxLG-65" value="заключение &lt;br&gt;специалиста" style="html=1;dashed=0;whitespace=wrap;" parent="1" vertex="1">
          <mxGeometry x="1040" y="191" width="100" height="50" as="geometry" />
        </mxCell>
        <mxCell id="SkLQpkn3maGRPMSLVxLG-66" value="оповещение &lt;br&gt;клиента о &lt;br&gt;результате" style="html=1;dashed=0;whitespace=wrap;fillColor=#d5e8d4;strokeColor=#82b366;" parent="1" vertex="1">
          <mxGeometry x="890" y="241" width="100" height="50" as="geometry" />
        </mxCell>
        <mxCell id="SkLQpkn3maGRPMSLVxLG-67" value="" style="endArrow=classic;html=1;" parent="1" source="SkLQpkn3maGRPMSLVxLG-65" target="SkLQpkn3maGRPMSLVxLG-64" edge="1">
          <mxGeometry width="50" height="50" relative="1" as="geometry">
            <mxPoint x="680" y="190" as="sourcePoint" />
            <mxPoint x="730" y="140" as="targetPoint" />
          </mxGeometry>
        </mxCell>
        <mxCell id="SkLQpkn3maGRPMSLVxLG-68" value="" style="endArrow=classic;html=1;" parent="1" source="SkLQpkn3maGRPMSLVxLG-65" target="SkLQpkn3maGRPMSLVxLG-66" edge="1">
          <mxGeometry width="50" height="50" relative="1" as="geometry">
            <mxPoint x="680" y="190" as="sourcePoint" />
            <mxPoint x="730" y="140" as="targetPoint" />
          </mxGeometry>
        </mxCell>
        <mxCell id="SkLQpkn3maGRPMSLVxLG-69" value="" style="endArrow=none;html=1;fillColor=#d5e8d4;strokeColor=#82b366;endFill=0;" parent="1" source="SkLQpkn3maGRPMSLVxLG-49" target="SkLQpkn3maGRPMSLVxLG-64" edge="1">
          <mxGeometry width="50" height="50" relative="1" as="geometry">
            <mxPoint x="830" y="190" as="sourcePoint" />
            <mxPoint x="880" y="140" as="targetPoint" />
          </mxGeometry>
        </mxCell>
        <mxCell id="SkLQpkn3maGRPMSLVxLG-71" value="вет. диетолог" style="shape=umlActor;verticalLabelPosition=bottom;verticalAlign=top;html=1;outlineConnect=0;" parent="1" vertex="1">
          <mxGeometry x="64" y="350" width="30" height="60" as="geometry" />
        </mxCell>
        <mxCell id="SkLQpkn3maGRPMSLVxLG-72" value="рассмотрение&amp;nbsp;&lt;br&gt;обращения" style="rounded=0;whiteSpace=wrap;html=1;fillColor=#f8cecc;strokeColor=#b85450;" parent="1" vertex="1">
          <mxGeometry x="24" y="480" width="120" height="60" as="geometry" />
        </mxCell>
        <mxCell id="zxGxXdGogj-dKgFZr41c-2" style="edgeStyle=orthogonalEdgeStyle;rounded=0;orthogonalLoop=1;jettySize=auto;html=1;endArrow=classic;endFill=1;" edge="1" parent="1" source="SkLQpkn3maGRPMSLVxLG-74" target="SkLQpkn3maGRPMSLVxLG-77">
          <mxGeometry relative="1" as="geometry" />
        </mxCell>
        <mxCell id="SkLQpkn3maGRPMSLVxLG-74" value="составление плана питания" style="rounded=0;whiteSpace=wrap;html=1;fillColor=#f8cecc;strokeColor=#b85450;" parent="1" vertex="1">
          <mxGeometry x="334" y="480" width="120" height="60" as="geometry" />
        </mxCell>
        <mxCell id="SkLQpkn3maGRPMSLVxLG-75" value="обращение" style="rounded=0;whiteSpace=wrap;html=1;" parent="1" vertex="1">
          <mxGeometry x="24" y="580" width="120" height="60" as="geometry" />
        </mxCell>
        <mxCell id="SkLQpkn3maGRPMSLVxLG-77" value="план питания" style="rounded=0;whiteSpace=wrap;html=1;" parent="1" vertex="1">
          <mxGeometry x="334" y="580" width="120" height="60" as="geometry" />
        </mxCell>
        <mxCell id="SkLQpkn3maGRPMSLVxLG-78" value="" style="endArrow=classic;html=1;" parent="1" source="SkLQpkn3maGRPMSLVxLG-75" target="SkLQpkn3maGRPMSLVxLG-72" edge="1">
          <mxGeometry width="50" height="50" relative="1" as="geometry">
            <mxPoint x="234" y="380" as="sourcePoint" />
            <mxPoint x="284" y="330" as="targetPoint" />
          </mxGeometry>
        </mxCell>
        <mxCell id="SkLQpkn3maGRPMSLVxLG-79" value="" style="endArrow=classic;html=1;" parent="1" source="SkLQpkn3maGRPMSLVxLG-72" target="SkLQpkn3maGRPMSLVxLG-74" edge="1">
          <mxGeometry width="50" height="50" relative="1" as="geometry">
            <mxPoint x="394" y="410" as="sourcePoint" />
            <mxPoint x="184" y="510" as="targetPoint" />
          </mxGeometry>
        </mxCell>
        <mxCell id="SkLQpkn3maGRPMSLVxLG-84" value="" style="endArrow=classic;html=1;" parent="1" source="SkLQpkn3maGRPMSLVxLG-64" target="SkLQpkn3maGRPMSLVxLG-66" edge="1">
          <mxGeometry width="50" height="50" relative="1" as="geometry">
            <mxPoint x="720" y="240" as="sourcePoint" />
            <mxPoint x="770" y="190" as="targetPoint" />
          </mxGeometry>
        </mxCell>
        <mxCell id="SkLQpkn3maGRPMSLVxLG-85" value="" style="endArrow=none;html=1;fillColor=#f8cecc;strokeColor=#b85450;endFill=0;" parent="1" source="SkLQpkn3maGRPMSLVxLG-71" target="SkLQpkn3maGRPMSLVxLG-72" edge="1">
          <mxGeometry width="50" height="50" relative="1" as="geometry">
            <mxPoint x="4.003846153846212" y="420" as="sourcePoint" />
            <mxPoint x="6.696153846153834" y="490" as="targetPoint" />
          </mxGeometry>
        </mxCell>
        <mxCell id="SkLQpkn3maGRPMSLVxLG-86" value="вет. врач" style="shape=umlActor;verticalLabelPosition=bottom;verticalAlign=top;html=1;outlineConnect=0;" parent="1" vertex="1">
          <mxGeometry x="680" y="330" width="30" height="60" as="geometry" />
        </mxCell>
        <mxCell id="SkLQpkn3maGRPMSLVxLG-87" value="рассмотрение&amp;nbsp;&lt;br&gt;обращения" style="rounded=0;whiteSpace=wrap;html=1;fillColor=#f8cecc;strokeColor=#b85450;" parent="1" vertex="1">
          <mxGeometry x="584" y="480" width="120" height="60" as="geometry" />
        </mxCell>
        <mxCell id="SkLQpkn3maGRPMSLVxLG-88" value="составление заключения" style="rounded=0;whiteSpace=wrap;html=1;fillColor=#f8cecc;strokeColor=#b85450;" parent="1" vertex="1">
          <mxGeometry x="744" y="480" width="120" height="60" as="geometry" />
        </mxCell>
        <mxCell id="SkLQpkn3maGRPMSLVxLG-89" value="составление плана лечения" style="rounded=0;whiteSpace=wrap;html=1;fillColor=#e1d5e7;strokeColor=#9673a6;" parent="1" vertex="1">
          <mxGeometry x="894" y="480" width="120" height="60" as="geometry" />
        </mxCell>
        <mxCell id="SkLQpkn3maGRPMSLVxLG-90" value="готовое обращение" style="rounded=0;whiteSpace=wrap;html=1;fillColor=#f8cecc;strokeColor=#b85450;" parent="1" vertex="1">
          <mxGeometry x="584" y="580" width="120" height="60" as="geometry" />
        </mxCell>
        <mxCell id="SkLQpkn3maGRPMSLVxLG-91" value="заключение специалиста 2" style="rounded=0;whiteSpace=wrap;html=1;" parent="1" vertex="1">
          <mxGeometry x="744" y="580" width="120" height="60" as="geometry" />
        </mxCell>
        <mxCell id="SkLQpkn3maGRPMSLVxLG-92" value="план лечения" style="rounded=0;whiteSpace=wrap;html=1;" parent="1" vertex="1">
          <mxGeometry x="894" y="580" width="120" height="60" as="geometry" />
        </mxCell>
        <mxCell id="SkLQpkn3maGRPMSLVxLG-93" value="" style="endArrow=classic;html=1;" parent="1" source="SkLQpkn3maGRPMSLVxLG-90" target="SkLQpkn3maGRPMSLVxLG-87" edge="1">
          <mxGeometry width="50" height="50" relative="1" as="geometry">
            <mxPoint x="794" y="380" as="sourcePoint" />
            <mxPoint x="844" y="330" as="targetPoint" />
          </mxGeometry>
        </mxCell>
        <mxCell id="SkLQpkn3maGRPMSLVxLG-94" value="" style="endArrow=classic;html=1;" parent="1" source="SkLQpkn3maGRPMSLVxLG-87" target="SkLQpkn3maGRPMSLVxLG-88" edge="1">
          <mxGeometry width="50" height="50" relative="1" as="geometry">
            <mxPoint x="954" y="410" as="sourcePoint" />
            <mxPoint x="1004" y="360" as="targetPoint" />
          </mxGeometry>
        </mxCell>
        <mxCell id="SkLQpkn3maGRPMSLVxLG-95" value="" style="endArrow=classic;html=1;exitX=0.5;exitY=1;exitDx=0;exitDy=0;" parent="1" source="SkLQpkn3maGRPMSLVxLG-88" target="SkLQpkn3maGRPMSLVxLG-91" edge="1">
          <mxGeometry width="50" height="50" relative="1" as="geometry">
            <mxPoint x="714" y="490" as="sourcePoint" />
            <mxPoint x="764" y="440" as="targetPoint" />
          </mxGeometry>
        </mxCell>
        <mxCell id="SkLQpkn3maGRPMSLVxLG-96" value="" style="endArrow=classic;html=1;" parent="1" source="SkLQpkn3maGRPMSLVxLG-88" target="SkLQpkn3maGRPMSLVxLG-89" edge="1">
          <mxGeometry width="50" height="50" relative="1" as="geometry">
            <mxPoint x="874" y="340" as="sourcePoint" />
            <mxPoint x="924" y="290" as="targetPoint" />
          </mxGeometry>
        </mxCell>
        <mxCell id="SkLQpkn3maGRPMSLVxLG-97" value="" style="endArrow=classic;html=1;" parent="1" source="SkLQpkn3maGRPMSLVxLG-92" target="SkLQpkn3maGRPMSLVxLG-89" edge="1">
          <mxGeometry width="50" height="50" relative="1" as="geometry">
            <mxPoint x="1054" y="320" as="sourcePoint" />
            <mxPoint x="1004" y="370" as="targetPoint" />
          </mxGeometry>
        </mxCell>
        <mxCell id="SkLQpkn3maGRPMSLVxLG-98" value="" style="endArrow=none;html=1;fillColor=#f8cecc;strokeColor=#b85450;endFill=0;" parent="1" source="SkLQpkn3maGRPMSLVxLG-86" target="SkLQpkn3maGRPMSLVxLG-87" edge="1">
          <mxGeometry width="50" height="50" relative="1" as="geometry">
            <mxPoint x="564.0038461538462" y="420" as="sourcePoint" />
            <mxPoint x="566.6961538461538" y="490" as="targetPoint" />
          </mxGeometry>
        </mxCell>
        <mxCell id="SkLQpkn3maGRPMSLVxLG-100" value="рассмотрение&amp;nbsp;&lt;br&gt;обращения" style="rounded=0;whiteSpace=wrap;html=1;fillColor=#e1d5e7;strokeColor=#9673a6;" parent="1" vertex="1">
          <mxGeometry x="584" y="480" width="120" height="60" as="geometry" />
        </mxCell>
        <mxCell id="SkLQpkn3maGRPMSLVxLG-101" value="обращение" style="rounded=0;whiteSpace=wrap;html=1;" parent="1" vertex="1">
          <mxGeometry x="584" y="580" width="120" height="60" as="geometry" />
        </mxCell>
        <mxCell id="zxGxXdGogj-dKgFZr41c-3" style="edgeStyle=orthogonalEdgeStyle;rounded=0;orthogonalLoop=1;jettySize=auto;html=1;endArrow=classic;endFill=1;" edge="1" parent="1" source="SkLQpkn3maGRPMSLVxLG-102" target="SkLQpkn3maGRPMSLVxLG-72">
          <mxGeometry relative="1" as="geometry">
            <Array as="points">
              <mxPoint x="804" y="450" />
              <mxPoint x="84" y="450" />
            </Array>
          </mxGeometry>
        </mxCell>
        <mxCell id="SkLQpkn3maGRPMSLVxLG-102" value="составление заключения" style="rounded=0;whiteSpace=wrap;html=1;fillColor=#e1d5e7;strokeColor=#9673a6;" parent="1" vertex="1">
          <mxGeometry x="744" y="480" width="120" height="60" as="geometry" />
        </mxCell>
      </root>
    </mxGraphModel>
  </diagram>
</mxfile>
